***************************** TPB IS BENEDICTION TO ME ****************************
*                                                                                 *
*										  *
*	        *                       *                       *	          *
*              ***                     ***                     ***                *
*	      *****                   *****                   *****		  *
*            *******                 *******                 *******		  *
*           *********		    *********               *********             *
*          ***********	           ***********             *********** 		  *
*         *************           *************           *************           *
*        ***************         ***************         ***************	  *
*       *****************       *****************       *****************         *
*      *******************     *******************     *******************        *
*     *** TPB IS D BEST ***   *** TPB IS D BEST ***   *** TPB IS D BEST *** 	  *
*      *******************     *******************     *******************	  *
*       *****************       *****************       *****************         *
*        ***************         ***************         ***************          *
*         *************           *************           *************	 	  *
*          ***********             ***********             ***********            *
*           *********               *********               *********             *
*            *******                 *******                 *******              *
*             *****                   *****		      *****               *
*	       ***                     ***                     ***                *
*	        *                       *                       *                 *
*										  *
*										  *
***************************** TPB IS BENEDICTION TO ME ****************************



Screen Link :---

 
http://www.imagefruit.com/img/7201/teen-murti-three-friends-bengali-film.jpg
 
http://www.imagefruit.com/img/7200/tin-murti-2009-.jpg


General Info :---


Format                           : Matroska
File size                        : 409 MiB
Duration                         : 2h 1mn
Overall bit rate                 : 472 Kbps

Video
ID                               : 1
Format                           : AVC
Format/Info                      : Advanced Video Codec
Format profile                   : High@L4.0
Format settings, CABAC           : Yes
Format settings, ReFrames        : 3 frames
Format settings, GOP             : N=1
Codec ID                         : V_MPEG4/ISO/AVC
Duration                         : 2h 1mn
Bit rate mode                    : Variable
Bit rate                         : 343 Kbps
Maximum bit rate                 : 25.0 Mbps
Width                            : 720 pixels
Height                           : 576 pixels
Display aspect ratio             : 4:3
Original display aspect ratio    : 4:3
Frame rate                       : 23.976 fps
Standard                         : PAL
Color space                      : YUV
Chroma subsampling               : 4:2:0
Bit depth                        : 8 bits
Scan type                        : Progressive
Bits/(Pixel*Frame)               : 0.034
Stream size                      : 290 MiB (71%)

Audio
ID                               : 2
Format                           : MPEG Audio
Format version                   : Version 1
Format profile                   : Layer 2
Codec ID                         : A_MPEG/L2
Codec ID/Hint                    : MP2
Duration                         : 2h 1mn
Bit rate mode                    : Constant
Bit rate                         : 128 Kbps
Channel(s)                       : 2 channels
Sampling rate                    : 44.1 KHz
Compression mode                 : Lossy
Stream size                      : 111 MiB (27%)



***************************** TPB IS BENEDICTION TO ME ****************************
*                                                                                 *
*										  *
*	        *                       *                       *	          *
*              ***                     ***                     ***                *
*	      *****                   *****                   *****		  *
*            *******                 *******                 *******		  *
*           *********		    *********               *********             *
*          ***********	           ***********             *********** 		  *
*         *************           *************           *************           *
*        ***************         ***************         ***************	  *
*       *****************       *****************       *****************         *
*      *******************     *******************     *******************        *
*     *** TPB IS D BEST ***   *** TPB IS D BEST ***   *** TPB IS D BEST *** 	  *
*      *******************     *******************     *******************	  *
*       *****************       *****************       *****************         *
*        ***************         ***************         ***************          *
*         *************           *************           *************	 	  *
*          ***********             ***********             ***********            *
*           *********               *********               *********             *
*            *******                 *******                 *******              *
*             *****                   *****		      *****               *
*	       ***                     ***                     ***                *
*	        *                       *                       *                 *
*										  *
*										  *
***************************** TPB IS BENEDICTION TO ME ****************************

